<?xml version="1.0" encoding="UTF-8" standalone="no"?>
<!DOCTYPE svg PUBLIC "-//W3C//DTD SVG 1.1//EN"
 "http://www.w3.org/Graphics/SVG/1.1/DTD/svg11.dtd">
<!-- Generated by graphviz version 2.42.1 (20190717.1914)
 -->
<!-- Title: snakemake_dag Pages: 1 -->
<svg width="547pt" height="1196pt"
 viewBox="0.00 0.00 546.95 1196.00" xmlns="http://www.w3.org/2000/svg" xmlns:xlink="http://www.w3.org/1999/xlink">
<g id="graph0" class="graph" transform="scale(1 1) rotate(0) translate(4 1192)">
<title>snakemake_dag</title>
<polygon fill="white" stroke="transparent" points="-4,4 -4,-1192 542.95,-1192 542.95,4 -4,4"/>
<!-- 0 -->
<g id="node1" class="node">
<title>0</title>
<path fill="none" stroke="#9fd856" stroke-width="2" d="M248.44,-36C248.44,-36 216.48,-36 216.48,-36 210.48,-36 204.48,-30 204.48,-24 204.48,-24 204.48,-12 204.48,-12 204.48,-6 210.48,0 216.48,0 216.48,0 248.44,0 248.44,0 254.44,0 260.44,-6 260.44,-12 260.44,-12 260.44,-24 260.44,-24 260.44,-30 254.44,-36 248.44,-36"/>
<text text-anchor="middle" x="232.46" y="-15" font-family="sans" font-size="10.00">targetfiles</text>
</g>
<!-- 1 -->
<g id="node2" class="node">
<title>1</title>
<path fill="none" stroke="#8fd856" stroke-width="2" d="M224.77,-540C224.77,-540 164.15,-540 164.15,-540 158.15,-540 152.15,-534 152.15,-528 152.15,-528 152.15,-516 152.15,-516 152.15,-510 158.15,-504 164.15,-504 164.15,-504 224.77,-504 224.77,-504 230.77,-504 236.77,-510 236.77,-516 236.77,-516 236.77,-528 236.77,-528 236.77,-534 230.77,-540 224.77,-540"/>
<text text-anchor="middle" x="194.46" y="-519" font-family="sans" font-size="10.00">cell_pairs_dedup</text>
</g>
<!-- 1&#45;&gt;0 -->
<g id="edge5" class="edge">
<title>1&#45;&gt;0</title>
<path fill="none" stroke="grey" stroke-width="2" d="M194.46,-503.95C194.46,-477.29 194.46,-424.11 194.46,-379 194.46,-379 194.46,-379 194.46,-161 194.46,-119.63 209.69,-73.72 220.87,-45.61"/>
<polygon fill="grey" stroke="grey" stroke-width="2" points="224.22,-46.67 224.77,-36.09 217.74,-44.02 224.22,-46.67"/>
</g>
<!-- 2 -->
<g id="node3" class="node">
<title>2</title>
<path fill="none" stroke="#56d87b" stroke-width="2" d="M306.49,-468C306.49,-468 234.43,-468 234.43,-468 228.43,-468 222.43,-462 222.43,-456 222.43,-456 222.43,-444 222.43,-444 222.43,-438 228.43,-432 234.43,-432 234.43,-432 306.49,-432 306.49,-432 312.49,-432 318.49,-438 318.49,-444 318.49,-444 318.49,-456 318.49,-456 318.49,-462 312.49,-468 306.49,-468"/>
<text text-anchor="middle" x="270.46" y="-447" font-family="sans" font-size="10.00">read_info_summary</text>
</g>
<!-- 1&#45;&gt;2 -->
<g id="edge11" class="edge">
<title>1&#45;&gt;2</title>
<path fill="none" stroke="grey" stroke-width="2" d="M213.25,-503.7C222.63,-495.05 234.14,-484.45 244.37,-475.03"/>
<polygon fill="grey" stroke="grey" stroke-width="2" points="246.91,-477.45 251.89,-468.1 242.16,-472.3 246.91,-477.45"/>
</g>
<!-- 3 -->
<g id="node4" class="node">
<title>3</title>
<path fill="none" stroke="#59d856" stroke-width="2" d="M118.38,-468C118.38,-468 76.54,-468 76.54,-468 70.54,-468 64.54,-462 64.54,-456 64.54,-456 64.54,-444 64.54,-444 64.54,-438 70.54,-432 76.54,-432 76.54,-432 118.38,-432 118.38,-432 124.38,-432 130.38,-438 130.38,-444 130.38,-444 130.38,-456 130.38,-456 130.38,-462 124.38,-468 118.38,-468"/>
<text text-anchor="middle" x="97.46" y="-447" font-family="sans" font-size="10.00">merge_pairs</text>
</g>
<!-- 1&#45;&gt;3 -->
<g id="edge13" class="edge">
<title>1&#45;&gt;3</title>
<path fill="none" stroke="grey" stroke-width="2" d="M170.48,-503.7C158.15,-494.8 142.94,-483.82 129.61,-474.2"/>
<polygon fill="grey" stroke="grey" stroke-width="2" points="131.32,-471.12 121.16,-468.1 127.22,-476.79 131.32,-471.12"/>
</g>
<!-- 2&#45;&gt;0 -->
<g id="edge4" class="edge">
<title>2&#45;&gt;0</title>
<path fill="none" stroke="grey" stroke-width="2" d="M262.77,-431.91C251.67,-405.62 232.46,-353.45 232.46,-307 232.46,-307 232.46,-307 232.46,-161 232.46,-121 232.46,-74.65 232.46,-46.08"/>
<polygon fill="grey" stroke="grey" stroke-width="2" points="235.96,-46.05 232.46,-36.05 228.96,-46.05 235.96,-46.05"/>
</g>
<!-- 3&#45;&gt;0 -->
<g id="edge7" class="edge">
<title>3&#45;&gt;0</title>
<path fill="none" stroke="grey" stroke-width="2" d="M64.7,-433.31C49.4,-424.4 32.22,-411.83 21.46,-396 -1.38,-362.38 0.46,-347.64 0.46,-307 0.46,-307 0.46,-307 0.46,-161 0.46,-119.11 0.72,-100.45 31.46,-72 76.21,-30.58 149.44,-20.75 194.07,-18.85"/>
<polygon fill="grey" stroke="grey" stroke-width="2" points="194.34,-22.34 204.22,-18.54 194.12,-15.35 194.34,-22.34"/>
</g>
<!-- 18 -->
<g id="node19" class="node">
<title>18</title>
<path fill="none" stroke="#d8c356" stroke-width="2" d="M152.75,-396C152.75,-396 42.17,-396 42.17,-396 36.17,-396 30.17,-390 30.17,-384 30.17,-384 30.17,-372 30.17,-372 30.17,-366 36.17,-360 42.17,-360 42.17,-360 152.75,-360 152.75,-360 158.75,-360 164.75,-366 164.75,-372 164.75,-372 164.75,-384 164.75,-384 164.75,-390 158.75,-396 152.75,-396"/>
<text text-anchor="middle" x="97.46" y="-375" font-family="sans" font-size="10.00">split_pairs_for_each_celltype</text>
</g>
<!-- 3&#45;&gt;18 -->
<g id="edge30" class="edge">
<title>3&#45;&gt;18</title>
<path fill="none" stroke="grey" stroke-width="2" d="M97.46,-431.7C97.46,-423.98 97.46,-414.71 97.46,-406.11"/>
<polygon fill="grey" stroke="grey" stroke-width="2" points="100.96,-406.1 97.46,-396.1 93.96,-406.1 100.96,-406.1"/>
</g>
<!-- 4 -->
<g id="node5" class="node">
<title>4</title>
<path fill="none" stroke="#c6d856" stroke-width="2" d="M444.26,-396C444.26,-396 378.66,-396 378.66,-396 372.66,-396 366.66,-390 366.66,-384 366.66,-384 366.66,-372 366.66,-372 366.66,-366 372.66,-360 378.66,-360 378.66,-360 444.26,-360 444.26,-360 450.26,-360 456.26,-366 456.26,-372 456.26,-372 456.26,-384 456.26,-384 456.26,-390 450.26,-396 444.26,-396"/>
<text text-anchor="middle" x="411.46" y="-375" font-family="sans" font-size="10.00">merge_peaks_pair</text>
</g>
<!-- 4&#45;&gt;0 -->
<g id="edge8" class="edge">
<title>4&#45;&gt;0</title>
<path fill="none" stroke="grey" stroke-width="2" d="M446.04,-359.87C461.69,-350.84 479.53,-338.59 492.46,-324 521.73,-290.98 536.46,-279.13 536.46,-235 536.46,-235 536.46,-235 536.46,-161 536.46,-120.55 546.44,-100.22 517.46,-72 482.91,-38.35 340.35,-25.38 270.87,-20.98"/>
<polygon fill="grey" stroke="grey" stroke-width="2" points="270.96,-17.48 260.77,-20.37 270.54,-24.47 270.96,-17.48"/>
</g>
<!-- 5 -->
<g id="node6" class="node">
<title>5</title>
<path fill="none" stroke="#56c9d8" stroke-width="2" d="M334.43,-252C334.43,-252 272.49,-252 272.49,-252 266.49,-252 260.49,-246 260.49,-240 260.49,-240 260.49,-228 260.49,-228 260.49,-222 266.49,-216 272.49,-216 272.49,-216 334.43,-216 334.43,-216 340.43,-216 346.43,-222 346.43,-228 346.43,-228 346.43,-240 346.43,-240 346.43,-246 340.43,-252 334.43,-252"/>
<text text-anchor="middle" x="303.46" y="-231" font-family="sans" font-size="10.00">extract_R2_reads</text>
</g>
<!-- 4&#45;&gt;5 -->
<g id="edge15" class="edge">
<title>4&#45;&gt;5</title>
<path fill="none" stroke="grey" stroke-width="2" d="M378.81,-359.94C364.19,-350.92 347.73,-338.66 336.46,-324 322.39,-305.7 313.84,-280.78 308.98,-261.97"/>
<polygon fill="grey" stroke="grey" stroke-width="2" points="312.38,-261.13 306.65,-252.22 305.57,-262.76 312.38,-261.13"/>
</g>
<!-- 22 -->
<g id="node23" class="node">
<title>22</title>
<path fill="none" stroke="#56b1d8" stroke-width="2" d="M471.08,-324C471.08,-324 357.84,-324 357.84,-324 351.84,-324 345.84,-318 345.84,-312 345.84,-312 345.84,-300 345.84,-300 345.84,-294 351.84,-288 357.84,-288 357.84,-288 471.08,-288 471.08,-288 477.08,-288 483.08,-294 483.08,-300 483.08,-300 483.08,-312 483.08,-312 483.08,-318 477.08,-324 471.08,-324"/>
<text text-anchor="middle" x="414.46" y="-303" font-family="sans" font-size="10.00">split_peaks_for_each_celltype</text>
</g>
<!-- 4&#45;&gt;22 -->
<g id="edge34" class="edge">
<title>4&#45;&gt;22</title>
<path fill="none" stroke="grey" stroke-width="2" d="M412.2,-359.7C412.53,-351.98 412.93,-342.71 413.3,-334.11"/>
<polygon fill="grey" stroke="grey" stroke-width="2" points="416.8,-334.25 413.73,-324.1 409.8,-333.95 416.8,-334.25"/>
</g>
<!-- 5&#45;&gt;0 -->
<g id="edge3" class="edge">
<title>5&#45;&gt;0</title>
<path fill="none" stroke="grey" stroke-width="2" d="M297.77,-215.85C285.44,-178.68 256.16,-90.44 241.36,-45.82"/>
<polygon fill="grey" stroke="grey" stroke-width="2" points="244.65,-44.62 238.18,-36.23 238,-46.83 244.65,-44.62"/>
</g>
<!-- 6 -->
<g id="node7" class="node">
<title>6</title>
<path fill="none" stroke="#d8b456" stroke-width="2" d="M154.09,-180C154.09,-180 40.83,-180 40.83,-180 34.83,-180 28.83,-174 28.83,-168 28.83,-168 28.83,-156 28.83,-156 28.83,-150 34.83,-144 40.83,-144 40.83,-144 154.09,-144 154.09,-144 160.09,-144 166.09,-150 166.09,-156 166.09,-156 166.09,-168 166.09,-168 166.09,-174 160.09,-180 154.09,-180"/>
<text text-anchor="middle" x="97.46" y="-159" font-family="sans" font-size="10.00">HiC_contact_matrices_Cooler</text>
</g>
<!-- 6&#45;&gt;0 -->
<g id="edge1" class="edge">
<title>6&#45;&gt;0</title>
<path fill="none" stroke="grey" stroke-width="2" d="M113.24,-143.82C129.85,-125.8 156.8,-96.73 180.46,-72 189.51,-62.54 199.56,-52.24 208.4,-43.26"/>
<polygon fill="grey" stroke="grey" stroke-width="2" points="210.96,-45.66 215.49,-36.08 205.97,-40.74 210.96,-45.66"/>
</g>
<!-- 8 -->
<g id="node9" class="node">
<title>8</title>
<path fill="none" stroke="#b6d856" stroke-width="2" d="M116.11,-108C116.11,-108 52.81,-108 52.81,-108 46.81,-108 40.81,-102 40.81,-96 40.81,-96 40.81,-84 40.81,-84 40.81,-78 46.81,-72 52.81,-72 52.81,-72 116.11,-72 116.11,-72 122.11,-72 128.11,-78 128.11,-84 128.11,-84 128.11,-96 128.11,-96 128.11,-102 122.11,-108 116.11,-108"/>
<text text-anchor="middle" x="84.46" y="-87" font-family="sans" font-size="10.00">dump_long_reads</text>
</g>
<!-- 6&#45;&gt;8 -->
<g id="edge19" class="edge">
<title>6&#45;&gt;8</title>
<path fill="none" stroke="grey" stroke-width="2" d="M94.25,-143.7C92.81,-135.98 91.09,-126.71 89.5,-118.11"/>
<polygon fill="grey" stroke="grey" stroke-width="2" points="92.9,-117.3 87.64,-108.1 86.02,-118.58 92.9,-117.3"/>
</g>
<!-- 7 -->
<g id="node8" class="node">
<title>7</title>
<path fill="none" stroke="#56d8d8" stroke-width="2" d="M387.99,-108C387.99,-108 310.93,-108 310.93,-108 304.93,-108 298.93,-102 298.93,-96 298.93,-96 298.93,-84 298.93,-84 298.93,-78 304.93,-72 310.93,-72 310.93,-72 387.99,-72 387.99,-72 393.99,-72 399.99,-78 399.99,-84 399.99,-84 399.99,-96 399.99,-96 399.99,-102 393.99,-108 387.99,-108"/>
<text text-anchor="middle" x="349.46" y="-87" font-family="sans" font-size="10.00">ATAC_macs2_peaks</text>
</g>
<!-- 7&#45;&gt;0 -->
<g id="edge2" class="edge">
<title>7&#45;&gt;0</title>
<path fill="none" stroke="grey" stroke-width="2" d="M320.84,-71.88C305.43,-62.66 286.23,-51.17 269.67,-41.26"/>
<polygon fill="grey" stroke="grey" stroke-width="2" points="271.16,-38.08 260.79,-35.95 267.57,-44.08 271.16,-38.08"/>
</g>
<!-- 8&#45;&gt;0 -->
<g id="edge9" class="edge">
<title>8&#45;&gt;0</title>
<path fill="none" stroke="grey" stroke-width="2" d="M120.66,-71.88C143.13,-61.25 171.94,-47.62 194.69,-36.86"/>
<polygon fill="grey" stroke="grey" stroke-width="2" points="196.49,-39.88 204.04,-32.44 193.5,-33.56 196.49,-39.88"/>
</g>
<!-- 9 -->
<g id="node10" class="node">
<title>9</title>
<path fill="none" stroke="#567bd8" stroke-width="2" d="M496.33,-108C496.33,-108 430.59,-108 430.59,-108 424.59,-108 418.59,-102 418.59,-96 418.59,-96 418.59,-84 418.59,-84 418.59,-78 424.59,-72 430.59,-72 430.59,-72 496.33,-72 496.33,-72 502.33,-72 508.33,-78 508.33,-84 508.33,-84 508.33,-96 508.33,-96 508.33,-102 502.33,-108 496.33,-108"/>
<text text-anchor="middle" x="463.46" y="-87" font-family="sans" font-size="10.00">dump_short_reads</text>
</g>
<!-- 9&#45;&gt;0 -->
<g id="edge6" class="edge">
<title>9&#45;&gt;0</title>
<path fill="none" stroke="grey" stroke-width="2" d="M418.39,-74.76C415.37,-73.82 412.37,-72.89 409.46,-72 361.74,-57.34 306.62,-40.92 270.74,-30.29"/>
<polygon fill="grey" stroke="grey" stroke-width="2" points="271.28,-26.8 260.7,-27.32 269.3,-33.52 271.28,-26.8"/>
</g>
<!-- 10 -->
<g id="node11" class="node">
<title>10</title>
<path fill="none" stroke="#78d856" stroke-width="2" d="M238.61,-612C238.61,-612 150.31,-612 150.31,-612 144.31,-612 138.31,-606 138.31,-600 138.31,-600 138.31,-588 138.31,-588 138.31,-582 144.31,-576 150.31,-576 150.31,-576 238.61,-576 238.61,-576 244.61,-576 250.61,-582 250.61,-588 250.61,-588 250.61,-600 250.61,-600 250.61,-606 244.61,-612 238.61,-612"/>
<text text-anchor="middle" x="194.46" y="-591" font-family="sans" font-size="10.00">flip_pairs_sort_by_cells</text>
</g>
<!-- 10&#45;&gt;1 -->
<g id="edge10" class="edge">
<title>10&#45;&gt;1</title>
<path fill="none" stroke="grey" stroke-width="2" d="M194.46,-575.7C194.46,-567.98 194.46,-558.71 194.46,-550.11"/>
<polygon fill="grey" stroke="grey" stroke-width="2" points="197.96,-550.1 194.46,-540.1 190.96,-550.1 197.96,-550.1"/>
</g>
<!-- 11 -->
<g id="node12" class="node">
<title>11</title>
<path fill="none" stroke="#56d8c9" stroke-width="2" d="M348.49,-756C348.49,-756 276.43,-756 276.43,-756 270.43,-756 264.43,-750 264.43,-744 264.43,-744 264.43,-732 264.43,-732 264.43,-726 270.43,-720 276.43,-720 276.43,-720 348.49,-720 348.49,-720 354.49,-720 360.49,-726 360.49,-732 360.49,-732 360.49,-744 360.49,-744 360.49,-750 354.49,-756 348.49,-756"/>
<text text-anchor="middle" x="312.46" y="-735" font-family="sans" font-size="10.00">prase_bam_to_pairs</text>
</g>
<!-- 11&#45;&gt;2 -->
<g id="edge12" class="edge">
<title>11&#45;&gt;2</title>
<path fill="none" stroke="grey" stroke-width="2" d="M309.96,-719.97C302.94,-672.19 283.03,-536.62 274.46,-478.27"/>
<polygon fill="grey" stroke="grey" stroke-width="2" points="277.92,-477.69 273,-468.31 270.99,-478.71 277.92,-477.69"/>
</g>
<!-- 12 -->
<g id="node13" class="node">
<title>12</title>
<path fill="none" stroke="#56d8b1" stroke-width="2" d="M421.82,-684C421.82,-684 361.1,-684 361.1,-684 355.1,-684 349.1,-678 349.1,-672 349.1,-672 349.1,-660 349.1,-660 349.1,-654 355.1,-648 361.1,-648 361.1,-648 421.82,-648 421.82,-648 427.82,-648 433.82,-654 433.82,-660 433.82,-660 433.82,-672 433.82,-672 433.82,-678 427.82,-684 421.82,-684"/>
<text text-anchor="middle" x="391.46" y="-663" font-family="sans" font-size="10.00">peaks_file_select</text>
</g>
<!-- 11&#45;&gt;12 -->
<g id="edge23" class="edge">
<title>11&#45;&gt;12</title>
<path fill="none" stroke="grey" stroke-width="2" d="M331.99,-719.7C341.84,-710.97 353.95,-700.24 364.66,-690.75"/>
<polygon fill="grey" stroke="grey" stroke-width="2" points="366.99,-693.36 372.16,-684.1 362.35,-688.12 366.99,-693.36"/>
</g>
<!-- 16 -->
<g id="node17" class="node">
<title>16</title>
<path fill="none" stroke="#56a2d8" stroke-width="2" d="M272.94,-684C272.94,-684 115.98,-684 115.98,-684 109.98,-684 103.98,-678 103.98,-672 103.98,-672 103.98,-660 103.98,-660 103.98,-654 109.98,-648 115.98,-648 115.98,-648 272.94,-648 272.94,-648 278.94,-648 284.94,-654 284.94,-660 284.94,-660 284.94,-672 284.94,-672 284.94,-678 278.94,-684 272.94,-684"/>
<text text-anchor="middle" x="194.46" y="-663" font-family="sans" font-size="10.00">flip_pairs_unique_map_sort_by_position</text>
</g>
<!-- 11&#45;&gt;16 -->
<g id="edge27" class="edge">
<title>11&#45;&gt;16</title>
<path fill="none" stroke="grey" stroke-width="2" d="M283.59,-719.88C268.17,-710.72 248.98,-699.34 232.36,-689.48"/>
<polygon fill="grey" stroke="grey" stroke-width="2" points="233.82,-686.28 223.44,-684.19 230.25,-692.3 233.82,-686.28"/>
</g>
<!-- 12&#45;&gt;4 -->
<g id="edge14" class="edge">
<title>12&#45;&gt;4</title>
<path fill="none" stroke="grey" stroke-width="2" d="M392.65,-647.97C395.99,-600.29 405.43,-465.18 409.53,-406.63"/>
<polygon fill="grey" stroke="grey" stroke-width="2" points="413.04,-406.53 410.25,-396.31 406.06,-406.04 413.04,-406.53"/>
</g>
<!-- 13 -->
<g id="node14" class="node">
<title>13</title>
<path fill="none" stroke="#d8a456" stroke-width="2" d="M149.71,-324C149.71,-324 45.21,-324 45.21,-324 39.21,-324 33.21,-318 33.21,-312 33.21,-312 33.21,-300 33.21,-300 33.21,-294 39.21,-288 45.21,-288 45.21,-288 149.71,-288 149.71,-288 155.71,-288 161.71,-294 161.71,-300 161.71,-300 161.71,-312 161.71,-312 161.71,-318 155.71,-324 149.71,-324"/>
<text text-anchor="middle" x="97.46" y="-303" font-family="sans" font-size="10.00">split_pairs_sort_deduplicate</text>
</g>
<!-- 13&#45;&gt;6 -->
<g id="edge17" class="edge">
<title>13&#45;&gt;6</title>
<path fill="none" stroke="grey" stroke-width="2" d="M88.33,-287.88C83.45,-277.76 77.95,-264.51 75.46,-252 72.33,-236.31 72.33,-231.69 75.46,-216 77.25,-207.01 80.6,-197.64 84.15,-189.32"/>
<polygon fill="grey" stroke="grey" stroke-width="2" points="87.38,-190.67 88.33,-180.12 81,-187.77 87.38,-190.67"/>
</g>
<!-- 14 -->
<g id="node15" class="node">
<title>14</title>
<path fill="none" stroke="#56d88a" stroke-width="2" d="M136.84,-252C136.84,-252 96.08,-252 96.08,-252 90.08,-252 84.08,-246 84.08,-240 84.08,-240 84.08,-228 84.08,-228 84.08,-222 90.08,-216 96.08,-216 96.08,-216 136.84,-216 136.84,-216 142.84,-216 148.84,-222 148.84,-228 148.84,-228 148.84,-240 148.84,-240 148.84,-246 142.84,-252 136.84,-252"/>
<text text-anchor="middle" x="116.46" y="-231" font-family="sans" font-size="10.00">make_index</text>
</g>
<!-- 13&#45;&gt;14 -->
<g id="edge25" class="edge">
<title>13&#45;&gt;14</title>
<path fill="none" stroke="grey" stroke-width="2" d="M102.16,-287.7C104.27,-279.9 106.82,-270.51 109.18,-261.83"/>
<polygon fill="grey" stroke="grey" stroke-width="2" points="112.58,-262.67 111.82,-252.1 105.82,-260.84 112.58,-262.67"/>
</g>
<!-- 14&#45;&gt;6 -->
<g id="edge16" class="edge">
<title>14&#45;&gt;6</title>
<path fill="none" stroke="grey" stroke-width="2" d="M111.76,-215.7C109.65,-207.9 107.1,-198.51 104.74,-189.83"/>
<polygon fill="grey" stroke="grey" stroke-width="2" points="108.1,-188.84 102.1,-180.1 101.34,-190.67 108.1,-188.84"/>
</g>
<!-- 15 -->
<g id="node16" class="node">
<title>15</title>
<path fill="none" stroke="#68d856" stroke-width="2" d="M496.58,-180C496.58,-180 318.34,-180 318.34,-180 312.34,-180 306.34,-174 306.34,-168 306.34,-168 306.34,-156 306.34,-156 306.34,-150 312.34,-144 318.34,-144 318.34,-144 496.58,-144 496.58,-144 502.58,-144 508.58,-150 508.58,-156 508.58,-156 508.58,-168 508.58,-168 508.58,-174 502.58,-180 496.58,-180"/>
<text text-anchor="middle" x="407.46" y="-159" font-family="sans" font-size="10.00">ATAC_reads_Tn5_shifting_duplicate_remove</text>
</g>
<!-- 15&#45;&gt;7 -->
<g id="edge18" class="edge">
<title>15&#45;&gt;7</title>
<path fill="none" stroke="grey" stroke-width="2" d="M393.12,-143.7C386.17,-135.3 377.69,-125.07 370.06,-115.86"/>
<polygon fill="grey" stroke="grey" stroke-width="2" points="372.71,-113.57 363.63,-108.1 367.32,-118.04 372.71,-113.57"/>
</g>
<!-- 15&#45;&gt;9 -->
<g id="edge20" class="edge">
<title>15&#45;&gt;9</title>
<path fill="none" stroke="grey" stroke-width="2" d="M421.3,-143.7C427.95,-135.39 436.04,-125.28 443.35,-116.14"/>
<polygon fill="grey" stroke="grey" stroke-width="2" points="446.26,-118.1 449.78,-108.1 440.8,-113.73 446.26,-118.1"/>
</g>
<!-- 16&#45;&gt;10 -->
<g id="edge21" class="edge">
<title>16&#45;&gt;10</title>
<path fill="none" stroke="grey" stroke-width="2" d="M194.46,-647.7C194.46,-639.98 194.46,-630.71 194.46,-622.11"/>
<polygon fill="grey" stroke="grey" stroke-width="2" points="197.96,-622.1 194.46,-612.1 190.96,-622.1 197.96,-622.1"/>
</g>
<!-- 17 -->
<g id="node18" class="node">
<title>17</title>
<path fill="none" stroke="#568ad8" stroke-width="2" d="M329.12,-828C329.12,-828 295.8,-828 295.8,-828 289.8,-828 283.8,-822 283.8,-816 283.8,-816 283.8,-804 283.8,-804 283.8,-798 289.8,-792 295.8,-792 295.8,-792 329.12,-792 329.12,-792 335.12,-792 341.12,-798 341.12,-804 341.12,-804 341.12,-816 341.12,-816 341.12,-822 335.12,-828 329.12,-828"/>
<text text-anchor="middle" x="312.46" y="-807" font-family="sans" font-size="10.00">bwa_align</text>
</g>
<!-- 17&#45;&gt;11 -->
<g id="edge22" class="edge">
<title>17&#45;&gt;11</title>
<path fill="none" stroke="grey" stroke-width="2" d="M312.46,-791.7C312.46,-783.98 312.46,-774.71 312.46,-766.11"/>
<polygon fill="grey" stroke="grey" stroke-width="2" points="315.96,-766.1 312.46,-756.1 308.96,-766.1 315.96,-766.1"/>
</g>
<!-- 18&#45;&gt;13 -->
<g id="edge24" class="edge">
<title>18&#45;&gt;13</title>
<path fill="none" stroke="grey" stroke-width="2" d="M97.46,-359.7C97.46,-351.98 97.46,-342.71 97.46,-334.11"/>
<polygon fill="grey" stroke="grey" stroke-width="2" points="100.96,-334.1 97.46,-324.1 93.96,-334.1 100.96,-334.1"/>
</g>
<!-- 19 -->
<g id="node20" class="node">
<title>19</title>
<path fill="none" stroke="#56d86b" stroke-width="2" d="M460.65,-252C460.65,-252 376.27,-252 376.27,-252 370.27,-252 364.27,-246 364.27,-240 364.27,-240 364.27,-228 364.27,-228 364.27,-222 370.27,-216 376.27,-216 376.27,-216 460.65,-216 460.65,-216 466.65,-216 472.65,-222 472.65,-228 472.65,-228 472.65,-240 472.65,-240 472.65,-246 466.65,-252 460.65,-252"/>
<text text-anchor="middle" x="418.46" y="-231" font-family="sans" font-size="10.00">R2_for_each_celltypes</text>
</g>
<!-- 19&#45;&gt;15 -->
<g id="edge26" class="edge">
<title>19&#45;&gt;15</title>
<path fill="none" stroke="grey" stroke-width="2" d="M415.74,-215.7C414.53,-207.98 413.07,-198.71 411.72,-190.11"/>
<polygon fill="grey" stroke="grey" stroke-width="2" points="415.16,-189.44 410.15,-180.1 408.24,-190.53 415.16,-189.44"/>
</g>
<!-- 20 -->
<g id="node21" class="node">
<title>20</title>
<path fill="none" stroke="#d85656" stroke-width="2" d="M291.46,-900C291.46,-900 261.46,-900 261.46,-900 255.46,-900 249.46,-894 249.46,-888 249.46,-888 249.46,-876 249.46,-876 249.46,-870 255.46,-864 261.46,-864 261.46,-864 291.46,-864 291.46,-864 297.46,-864 303.46,-870 303.46,-876 303.46,-876 303.46,-888 303.46,-888 303.46,-894 297.46,-900 291.46,-900"/>
<text text-anchor="middle" x="276.46" y="-879" font-family="sans" font-size="10.00">r1_zip</text>
</g>
<!-- 20&#45;&gt;17 -->
<g id="edge28" class="edge">
<title>20&#45;&gt;17</title>
<path fill="none" stroke="grey" stroke-width="2" d="M285.36,-863.7C289.46,-855.73 294.41,-846.1 298.95,-837.26"/>
<polygon fill="grey" stroke="grey" stroke-width="2" points="302.2,-838.6 303.66,-828.1 295.98,-835.4 302.2,-838.6"/>
</g>
<!-- 21 -->
<g id="node22" class="node">
<title>21</title>
<path fill="none" stroke="#d86656" stroke-width="2" d="M379.46,-900C379.46,-900 349.46,-900 349.46,-900 343.46,-900 337.46,-894 337.46,-888 337.46,-888 337.46,-876 337.46,-876 337.46,-870 343.46,-864 349.46,-864 349.46,-864 379.46,-864 379.46,-864 385.46,-864 391.46,-870 391.46,-876 391.46,-876 391.46,-888 391.46,-888 391.46,-894 385.46,-900 379.46,-900"/>
<text text-anchor="middle" x="364.46" y="-879" font-family="sans" font-size="10.00">r2_zip</text>
</g>
<!-- 21&#45;&gt;17 -->
<g id="edge29" class="edge">
<title>21&#45;&gt;17</title>
<path fill="none" stroke="grey" stroke-width="2" d="M351.61,-863.7C345.43,-855.39 337.92,-845.28 331.14,-836.14"/>
<polygon fill="grey" stroke="grey" stroke-width="2" points="333.94,-834.04 325.17,-828.1 328.32,-838.22 333.94,-834.04"/>
</g>
<!-- 22&#45;&gt;19 -->
<g id="edge31" class="edge">
<title>22&#45;&gt;19</title>
<path fill="none" stroke="grey" stroke-width="2" d="M415.45,-287.7C415.89,-279.98 416.42,-270.71 416.91,-262.11"/>
<polygon fill="grey" stroke="grey" stroke-width="2" points="420.41,-262.29 417.48,-252.1 413.42,-261.89 420.41,-262.29"/>
</g>
<!-- 23 -->
<g id="node24" class="node">
<title>23</title>
<path fill="none" stroke="#56d8a2" stroke-width="2" d="M291.85,-972C291.85,-972 195.07,-972 195.07,-972 189.07,-972 183.07,-966 183.07,-960 183.07,-960 183.07,-948 183.07,-948 183.07,-942 189.07,-936 195.07,-936 195.07,-936 291.85,-936 291.85,-936 297.85,-936 303.85,-942 303.85,-948 303.85,-948 303.85,-960 303.85,-960 303.85,-966 297.85,-972 291.85,-972"/>
<text text-anchor="middle" x="243.46" y="-951" font-family="sans" font-size="10.00">read1_barcode_correction</text>
</g>
<!-- 23&#45;&gt;20 -->
<g id="edge32" class="edge">
<title>23&#45;&gt;20</title>
<path fill="none" stroke="grey" stroke-width="2" d="M251.62,-935.7C255.37,-927.73 259.91,-918.1 264.08,-909.26"/>
<polygon fill="grey" stroke="grey" stroke-width="2" points="267.3,-910.64 268.4,-900.1 260.97,-907.66 267.3,-910.64"/>
</g>
<!-- 24 -->
<g id="node25" class="node">
<title>24</title>
<path fill="none" stroke="#d88d56" stroke-width="2" d="M429.85,-972C429.85,-972 333.07,-972 333.07,-972 327.07,-972 321.07,-966 321.07,-960 321.07,-960 321.07,-948 321.07,-948 321.07,-942 327.07,-936 333.07,-936 333.07,-936 429.85,-936 429.85,-936 435.85,-936 441.85,-942 441.85,-948 441.85,-948 441.85,-960 441.85,-960 441.85,-966 435.85,-972 429.85,-972"/>
<text text-anchor="middle" x="381.46" y="-951" font-family="sans" font-size="10.00">read2_barcode_correction</text>
</g>
<!-- 24&#45;&gt;21 -->
<g id="edge33" class="edge">
<title>24&#45;&gt;21</title>
<path fill="none" stroke="grey" stroke-width="2" d="M377.26,-935.7C375.36,-927.9 373.08,-918.51 370.98,-909.83"/>
<polygon fill="grey" stroke="grey" stroke-width="2" points="374.38,-909 368.61,-900.1 367.57,-910.65 374.38,-909"/>
</g>
<!-- 25 -->
<g id="node26" class="node">
<title>25</title>
<path fill="none" stroke="#d6d856" stroke-width="2" d="M333.44,-1188C333.44,-1188 291.48,-1188 291.48,-1188 285.48,-1188 279.48,-1182 279.48,-1176 279.48,-1176 279.48,-1164 279.48,-1164 279.48,-1158 285.48,-1152 291.48,-1152 291.48,-1152 333.44,-1152 333.44,-1152 339.44,-1152 345.44,-1158 345.44,-1164 345.44,-1164 345.44,-1176 345.44,-1176 345.44,-1182 339.44,-1188 333.44,-1188"/>
<text text-anchor="middle" x="312.46" y="-1167" font-family="sans" font-size="10.00">raw_fq_trim</text>
</g>
<!-- 25&#45;&gt;23 -->
<g id="edge35" class="edge">
<title>25&#45;&gt;23</title>
<path fill="none" stroke="grey" stroke-width="2" d="M295.4,-1151.77C286.68,-1142.03 276.63,-1129.19 270.46,-1116 250.06,-1072.41 244.84,-1015.81 243.64,-982.64"/>
<polygon fill="grey" stroke="grey" stroke-width="2" points="247.13,-982.25 243.37,-972.34 240.14,-982.43 247.13,-982.25"/>
</g>
<!-- 25&#45;&gt;24 -->
<g id="edge37" class="edge">
<title>25&#45;&gt;24</title>
<path fill="none" stroke="grey" stroke-width="2" d="M329.52,-1151.77C338.24,-1142.03 348.29,-1129.19 354.46,-1116 374.86,-1072.41 380.08,-1015.81 381.28,-982.64"/>
<polygon fill="grey" stroke="grey" stroke-width="2" points="384.78,-982.43 381.55,-972.34 377.79,-982.25 384.78,-982.43"/>
</g>
<!-- 27 -->
<g id="node28" class="node">
<title>27</title>
<path fill="none" stroke="#566bd8" stroke-width="2" d="M333.5,-1116C333.5,-1116 291.42,-1116 291.42,-1116 285.42,-1116 279.42,-1110 279.42,-1104 279.42,-1104 279.42,-1092 279.42,-1092 279.42,-1086 285.42,-1080 291.42,-1080 291.42,-1080 333.5,-1080 333.5,-1080 339.5,-1080 345.5,-1086 345.5,-1092 345.5,-1092 345.5,-1104 345.5,-1104 345.5,-1110 339.5,-1116 333.5,-1116"/>
<text text-anchor="middle" x="312.46" y="-1095" font-family="sans" font-size="10.00">barcode_QC</text>
</g>
<!-- 25&#45;&gt;27 -->
<g id="edge40" class="edge">
<title>25&#45;&gt;27</title>
<path fill="none" stroke="grey" stroke-width="2" d="M312.46,-1151.7C312.46,-1143.98 312.46,-1134.71 312.46,-1126.11"/>
<polygon fill="grey" stroke="grey" stroke-width="2" points="315.96,-1126.1 312.46,-1116.1 308.96,-1126.1 315.96,-1126.1"/>
</g>
<!-- 26 -->
<g id="node27" class="node">
<title>26</title>
<path fill="none" stroke="#d87d56" stroke-width="2" d="M348.49,-1044C348.49,-1044 276.43,-1044 276.43,-1044 270.43,-1044 264.43,-1038 264.43,-1032 264.43,-1032 264.43,-1020 264.43,-1020 264.43,-1014 270.43,-1008 276.43,-1008 276.43,-1008 348.49,-1008 348.49,-1008 354.49,-1008 360.49,-1014 360.49,-1020 360.49,-1020 360.49,-1032 360.49,-1032 360.49,-1038 354.49,-1044 348.49,-1044"/>
<text text-anchor="middle" x="312.46" y="-1023" font-family="sans" font-size="10.00">find_right_barcodes</text>
</g>
<!-- 26&#45;&gt;23 -->
<g id="edge36" class="edge">
<title>26&#45;&gt;23</title>
<path fill="none" stroke="grey" stroke-width="2" d="M295.4,-1007.7C286.96,-999.14 276.64,-988.66 267.42,-979.3"/>
<polygon fill="grey" stroke="grey" stroke-width="2" points="269.83,-976.77 260.32,-972.1 264.85,-981.68 269.83,-976.77"/>
</g>
<!-- 26&#45;&gt;24 -->
<g id="edge38" class="edge">
<title>26&#45;&gt;24</title>
<path fill="none" stroke="grey" stroke-width="2" d="M329.52,-1007.7C337.96,-999.14 348.28,-988.66 357.5,-979.3"/>
<polygon fill="grey" stroke="grey" stroke-width="2" points="360.07,-981.68 364.6,-972.1 355.09,-976.77 360.07,-981.68"/>
</g>
<!-- 27&#45;&gt;26 -->
<g id="edge39" class="edge">
<title>27&#45;&gt;26</title>
<path fill="none" stroke="grey" stroke-width="2" d="M312.46,-1079.7C312.46,-1071.98 312.46,-1062.71 312.46,-1054.11"/>
<polygon fill="grey" stroke="grey" stroke-width="2" points="315.96,-1054.1 312.46,-1044.1 308.96,-1054.1 315.96,-1054.1"/>
</g>
</g>
</svg>
